<svg width="32" height="31" viewBox="0 0 32 31" fill="none" xmlns="http://www.w3.org/2000/svg">
<path d="M31.1847 8.30794C31.1801 7.27429 30.9988 6.2475 30.6751 5.26634C29.6605 2.21104 26.8645 0.139188 23.3684 0H8.38312C7.34325 0.00456355 6.31025 0.184826 5.32317 0.508838C2.24945 1.51738 0.1651 4.29659 0.0250722 7.77173C-0.0277252 9.05865 0.0181856 20.2713 0.0250722 22.6671C0.0296633 23.7008 0.211011 24.7276 0.534682 25.7087C1.54931 28.764 4.34527 30.8359 7.84138 30.9751C9.13606 31.0276 20.4163 30.9819 22.8266 30.9751C23.8665 30.9705 24.8995 30.7902 25.8866 30.4685C28.9603 29.46 31.0447 26.6808 31.1847 23.2056C31.2375 21.9187 31.1916 10.7061 31.1847 8.31022V8.30794ZM8.80091 15.5161L16.4244 4.1688V12.6C16.4244 14.2109 15.1113 15.5161 13.4907 15.5161H8.79862H8.80091ZM15.6095 15.4818V15.4932H15.598V15.4818H15.6095ZM14.6155 26.8633V18.1675C14.6155 16.7026 15.8092 15.5161 17.2829 15.5161H22.2413L14.6178 26.8633H14.6155Z" fill="#8E8BFF"/>
</svg>
