<svg width="26" height="26" viewBox="0 0 26 26" fill="none" xmlns="http://www.w3.org/2000/svg">
<path fill-rule="evenodd" clip-rule="evenodd" d="M26 13.0062C26 20.1825 20.1825 26 13.0062 26H12.9938C5.81746 26 0 20.1825 0 13.0062V13C0 5.82031 5.82032 0 13 0C20.1797 0 26 5.82031 26 13V13.0062ZM16.4415 11.8453C17.1648 12.0129 17.8387 12.3553 18.3001 12.8721C18.7613 13.3891 19 14.092 19 14.9701C19 15.6112 18.8914 16.1796 18.6582 16.665C18.4247 17.1501 18.1106 17.5623 17.7161 17.88C17.2494 18.261 16.7368 18.5538 16.1783 18.7155C15.6197 18.8772 14.9099 19 14.0484 19H9V6H13.4649C14.3763 6 15.0657 6.04283 15.5356 6.11524C16.005 6.1874 16.4442 6.34599 16.8554 6.577C17.3001 6.8254 17.63 7.15763 17.8497 7.57344C18.0692 7.98926 18.1748 8.46892 18.1748 9.01192C18.1748 9.64161 18.0152 10.202 17.7124 10.6928C17.4092 11.1839 16.9583 11.5452 16.4415 11.776V11.8453ZM12.398 8.3638H12.1006V11.1572H12.573C13.0123 11.1572 13.343 11.1368 13.5657 11.123C13.6135 11.1201 13.6563 11.1174 13.6941 11.1154C13.9081 11.104 14.1288 11.0191 14.3571 10.909C14.607 10.7878 14.7793 10.6201 14.8737 10.4063C14.9683 10.1927 15.0155 9.94374 15.0155 9.66082C15.0155 9.45265 14.964 9.238 14.8612 9.01841C14.7583 8.79908 14.5985 8.63841 14.382 8.54004C14.1763 8.44764 13.9331 8.39313 13.6527 8.38457C13.3718 8.376 12.9536 8.3638 12.398 8.3638ZM14.982 16.2993C15.2654 16.1721 15.4724 15.986 15.6032 15.7402C15.7336 15.4947 15.799 15.2151 15.799 14.9034C15.799 14.5047 15.7211 14.1919 15.5655 13.9666C15.41 13.7413 15.1765 13.5695 14.8654 13.454C14.6764 13.379 14.4165 13.3338 14.0859 13.3253C13.7553 13.3164 13.3121 13.3058 12.7566 13.3058H12.1006V16.6365H12.3481C12.9409 16.6365 13.4003 16.6104 13.7262 16.5919C13.8462 16.5851 13.9481 16.5793 14.032 16.5762C14.3431 16.5646 14.6597 16.4436 14.982 16.2993Z" fill="#615C7E"/>
</svg>
