<svg width="652" height="195" fill="none" xmlns="http://www.w3.org/2000/svg"><g filter="url(#a)" fill="#fff"><path d="M81.999 150.41v-43.178L39.043 39.294h22.52l30.336 48.257 28.264-48.257h21.083l-39.765 67.938v43.178H81.999ZM177.49 152.153c-5.639 0-10.971-.878-15.963-2.621-5.003-1.744-9.394-4.388-13.172-7.934-3.779-3.545-6.793-8.015-9.018-13.409-2.236-5.395-3.355-11.748-3.355-19.05v-3.171c0-6.88 1.119-12.907 3.355-18.09 2.237-5.184 5.239-9.502 9.018-12.942 3.778-3.44 8.169-6.026 13.172-7.781 5.003-1.744 10.324-2.621 15.963-2.621 5.639 0 10.96.877 15.963 2.62 5.003 1.744 9.394 4.365 13.172 7.852 3.779 3.487 6.793 7.805 9.018 12.942 2.236 5.137 3.355 11.14 3.355 18.02v3.171c0 7.196-1.119 13.492-3.355 18.886-2.237 5.394-5.251 9.899-9.018 13.491-3.778 3.604-8.169 6.272-13.172 8.016-5.003 1.743-10.324 2.621-15.963 2.621Zm0-15.235c3.084 0 6.063-.55 8.947-1.662a20.546 20.546 0 0 0 7.51-4.996c2.131-2.223 3.838-5.079 5.109-8.577 1.271-3.487 1.919-7.676 1.919-12.544v-3.171c0-4.447-.636-8.308-1.919-11.584-1.283-3.277-2.978-6.003-5.109-8.18a20.229 20.229 0 0 0-7.51-4.844 25.787 25.787 0 0 0-8.947-1.591c-3.096 0-6.062.526-8.947 1.591a20.325 20.325 0 0 0-7.51 4.844c-2.131 2.165-3.838 4.892-5.109 8.18-1.271 3.276-1.919 7.137-1.919 11.584v3.171c0 4.868.636 9.045 1.919 12.544 1.283 3.487 2.978 6.377 5.109 8.647 2.131 2.282 4.626 3.943 7.51 4.996a25.767 25.767 0 0 0 8.947 1.592ZM266.121 152.153c-10.112 0-17.705-2.855-22.755-8.577-5.062-5.71-7.581-14.498-7.581-26.351V66.277h17.564v49.204c0 7.091 1.459 12.439 4.391 16.031 2.931 3.604 7.687 5.394 14.291 5.394 3.614 0 6.733-.608 9.347-1.825 2.601-1.217 4.732-2.808 6.392-4.763 1.648-1.954 2.896-4.235 3.755-6.821a25.598 25.598 0 0 0 1.271-8.016V66.277h17.564v84.133h-16.292v-14.44c-2.025 4.447-5.38 8.25-10.065 11.432-4.685 3.171-10.642 4.763-17.882 4.763v-.012ZM332.705 150.41V66.278h16.292v14.439c2.025-4.341 5.404-8.12 10.136-11.35 4.732-3.23 10.889-4.845 18.446-4.845 10.536 0 18.388 2.774 23.556 8.332 5.156 5.558 7.746 13.679 7.746 24.362v53.171h-17.564v-49.204c0-7.091-1.518-12.427-4.556-16.031-3.037-3.593-8.016-5.395-14.926-5.395-3.826 0-7.11.609-9.818 1.826-2.719 1.217-4.956 2.808-6.71 4.762-1.754 1.954-3.037 4.236-3.838 6.822-.8 2.598-1.2 5.266-1.2 8.016v49.204h-17.564v.023ZM440.816 56.273c-3.402 0-6.121-1.006-8.146-3.019-2.025-2.013-3.037-4.552-3.037-7.617 0-3.066 1.012-5.605 3.037-7.618S437.402 35 440.816 35c3.414 0 6.121 1.006 8.146 3.019 2.025 2.013 3.037 4.552 3.037 7.617 0 3.066-1.012 5.605-3.037 7.618s-4.744 3.019-8.146 3.019Zm-8.782 94.125V66.266h17.564v84.132h-17.564ZM506.278 151.194c-4.685 0-8.758-.503-12.219-1.51-3.461-1.006-6.31-2.562-8.546-4.68-2.237-2.118-3.862-4.844-4.874-8.179-1.012-3.335-1.519-7.278-1.519-11.83v-43.81h-11.972V66.266h11.972v-19.05h17.564v19.05h21.554v14.92h-21.554v41.422c0 2.328.212 4.364.636 6.108.424 1.743 1.165 3.147 2.236 4.201 1.06 1.053 2.449 1.825 4.156 2.305 1.707.479 3.885.713 6.545.713 1.601 0 3.19-.023 4.791-.081a47.457 47.457 0 0 0 4.791-.398v14.919c-2.024.21-4.073.398-6.145.55-2.071.164-4.555.234-7.428.234l.012.035ZM574.476 152.153c-5.745 0-11.148-.842-16.21-2.539-5.062-1.697-9.476-4.341-13.255-7.933-3.779-3.593-6.781-8.098-9.017-13.492-2.237-5.394-3.355-11.748-3.355-19.05v-3.171c0-6.986 1.059-13.035 3.19-18.172 2.131-5.137 5.026-9.443 8.699-12.942 3.673-3.498 7.935-6.084 12.773-7.78 4.838-1.698 10.029-2.54 15.574-2.54 12.984 0 22.92 3.417 29.783 10.239 6.863 6.821 10.3 16.697 10.3 29.604v8.893h-62.591c.106 4.341.848 8.015 2.237 11.034 1.377 3.019 3.214 5.476 5.509 7.384a22.297 22.297 0 0 0 7.663 4.2 28.447 28.447 0 0 0 8.7 1.346c5.851 0 10.383-.948 13.573-2.855 3.19-1.907 5.427-4.493 6.71-7.781h16.61c-.848 4.235-2.343 7.933-4.473 11.116a29.468 29.468 0 0 1-7.982 8.015c-3.19 2.165-6.863 3.78-11.018 4.844-4.156 1.054-8.629 1.592-13.408 1.592l-.012-.012Zm-23.956-51.907h45.675c-.106-3.908-.742-7.196-1.919-9.84-1.177-2.645-2.766-4.763-4.791-6.354-2.025-1.592-4.414-2.75-7.181-3.487a33.348 33.348 0 0 0-8.629-1.112c-2.99 0-5.85.398-8.628 1.194-2.767.795-5.215 2.036-7.346 3.732-2.131 1.697-3.861 3.838-5.191 6.424-1.331 2.598-2.002 5.746-2.002 9.443h.012Z"/></g><defs><filter id="a" x=".743" y=".7" width="650.516" height="193.765" filterUnits="userSpaceOnUse" color-interpolation-filters="sRGB"><feFlood flood-opacity="0" result="BackgroundImageFix"/><feColorMatrix in="SourceAlpha" values="0 0 0 0 0 0 0 0 0 0 0 0 0 0 0 0 0 0 127 0" result="hardAlpha"/><feOffset/><feGaussianBlur stdDeviation="4.9"/><feComposite in2="hardAlpha" operator="out"/><feColorMatrix values="0 0 0 0 0.448167 0 0 0 0 0.358333 0 0 0 0 1 0 0 0 1 0"/><feBlend in2="BackgroundImageFix" result="effect1_dropShadow_2411_1304"/><feColorMatrix in="SourceAlpha" values="0 0 0 0 0 0 0 0 0 0 0 0 0 0 0 0 0 0 127 0" result="hardAlpha"/><feOffset dy="4"/><feGaussianBlur stdDeviation="19.15"/><feComposite in2="hardAlpha" operator="out"/><feColorMatrix values="0 0 0 0 1 0 0 0 0 1 0 0 0 0 1 0 0 0 0.46 0"/><feBlend in2="effect1_dropShadow_2411_1304" result="effect2_dropShadow_2411_1304"/><feBlend in="SourceGraphic" in2="effect2_dropShadow_2411_1304" result="shape"/></filter></defs></svg>