<svg width="360" height="360" fill="none" xmlns="http://www.w3.org/2000/svg"><g opacity=".08" clip-path="url(#a)" fill="#A562FF"><path d="M239.804 150.335c5.998-5.937 9.721-14.168 9.721-23.255 0-18.048-14.686-32.73-32.737-32.73-13.91 0-26.239 8.818-30.842 21.739a32.738 32.738 0 0 0-5.946-.551c-2.031 0-4.016.195-5.946.551-4.603-12.922-16.932-21.74-30.842-21.74-18.051 0-32.737 14.683-32.737 32.731 0 9.087 3.723 17.318 9.722 23.255-14.389 8.196-23.652 23.717-23.652 40.597a5.274 5.274 0 1 0 10.547 0c0-14.908 9.334-28.446 23.246-33.756a32.554 32.554 0 0 0 18.831 2.088 32.809 32.809 0 0 0 7.809 12.256 46.592 46.592 0 0 0-23.644 40.602 5.274 5.274 0 1 0 10.547 0 36.079 36.079 0 0 1 22.061-33.283c.359-.152.69-.341.995-.557A32.538 32.538 0 0 0 180 181.01c4.57 0 8.923-.945 12.877-2.643 13.906 5.309 23.242 18.861 23.242 33.755a5.274 5.274 0 1 0 10.547 0c0-16.864-9.265-32.398-23.65-40.597a32.811 32.811 0 0 0 7.816-12.261 32.54 32.54 0 0 0 18.829-2.088c13.912 5.31 23.246 18.846 23.246 33.756a5.274 5.274 0 0 0 10.547 0c.002-16.881-9.261-32.401-23.65-40.597Zm-92.539-2.061c0 .207.012.411.016.617-1.329.248-2.689.38-4.068.38-12.236 0-22.191-9.954-22.191-22.191 0-12.231 9.955-22.183 22.191-22.183 9.44 0 17.803 5.989 20.915 14.76-10.048 5.596-16.863 16.323-16.863 28.617Zm10.547 0c0-12.234 9.954-22.189 22.189-22.189s22.188 9.954 22.188 22.189-9.953 22.189-22.188 22.189-22.189-9.955-22.189-22.189Zm54.908.617c.004-.206.016-.41.016-.617 0-12.294-6.815-23.02-16.863-28.616 3.112-8.771 11.475-14.761 20.915-14.761 12.236 0 22.19 9.952 22.19 22.184 0 12.236-9.954 22.191-22.19 22.191a22.204 22.204 0 0 1-4.068-.381Z"/><path d="M316.57 227.91v-95.855c13.145-2.481 23.121-14.043 23.121-27.898 0-15.66-12.739-28.398-28.398-28.398-8.605 0-16.323 3.853-21.535 9.919l-82.96-47.901a28.302 28.302 0 0 0 1.6-9.381C208.398 12.739 195.659 0 180.001 0c-15.658 0-28.397 12.739-28.397 28.397 0 3.287.567 6.442 1.599 9.38l-82.96 47.9c-5.211-6.065-12.93-9.918-21.535-9.918-15.659 0-28.397 12.739-28.397 28.398 0 13.855 9.976 25.416 23.12 27.898v95.855c-13.144 2.481-23.12 14.043-23.12 27.898 0 15.659 12.738 28.397 28.397 28.397 8.592 0 16.3-3.841 21.51-9.889l82.985 47.909a28.23 28.23 0 0 0-1.599 9.378c0 15.659 12.738 28.398 28.397 28.398 15.659 0 28.397-12.739 28.397-28.398 0-3.285-.567-6.44-1.599-9.378l82.984-47.909c5.212 6.049 12.919 9.889 21.511 9.889 15.659 0 28.397-12.738 28.397-28.397 0-13.856-9.977-25.417-23.121-27.898Zm-5.277-141.604c9.843 0 17.851 8.008 17.851 17.851 0 9.842-8.008 17.85-17.851 17.85-9.842 0-17.85-8.008-17.85-17.85 0-9.843 8.008-17.85 17.85-17.85Zm-131.292-75.76c9.842 0 17.85 8.008 17.85 17.85 0 9.834-7.993 17.835-17.823 17.85l-.027-.001-.027.001c-9.83-.015-17.823-8.016-17.823-17.85 0-9.842 8.007-17.85 17.85-17.85ZM30.857 104.158c0-9.843 8.008-17.85 17.85-17.85 9.843 0 17.851 8.007 17.851 17.85 0 9.842-8.008 17.85-17.85 17.85-9.843 0-17.85-8.008-17.85-17.85Zm17.85 169.501c-9.842 0-17.85-8.008-17.85-17.851 0-9.842 8.008-17.85 17.85-17.85 9.843 0 17.851 8.008 17.851 17.85 0 9.843-8.008 17.851-17.85 17.851Zm131.294 75.795c-9.842 0-17.85-8.008-17.85-17.85 0-9.843 8.008-17.851 17.85-17.851 9.842 0 17.85 8.008 17.85 17.851 0 9.842-8.008 17.85-17.85 17.85Zm21.512-36.355c-4.118-4.782-9.796-8.178-16.239-9.393v-20.317a5.273 5.273 0 0 0-5.274-5.273 5.273 5.273 0 0 0-5.273 5.273v20.317c-6.443 1.215-12.121 4.611-16.24 9.393l-82.982-47.909a28.25 28.25 0 0 0 1.6-9.381c0-3.29-.57-6.448-1.603-9.389l17.6-10.164a5.278 5.278 0 0 0 1.868-7.169 5.272 5.272 0 0 0-7.144-1.965l-17.614 10.173c-4.119-4.777-9.794-8.17-16.234-9.385v-95.854c6.442-1.214 12.119-4.609 16.237-9.389l17.639 10.187a5.289 5.289 0 0 0 4.001.528 5.279 5.279 0 0 0 3.864-4.406 5.27 5.27 0 0 0-2.591-5.256l-17.625-10.178a28.272 28.272 0 0 0 1.6-9.384 28.245 28.245 0 0 0-1.588-9.346l82.972-47.907c4.119 4.78 9.796 8.176 16.238 9.39v20.319a5.273 5.273 0 1 0 10.547 0V56.295c6.442-1.215 12.119-4.611 16.237-9.391l82.972 47.907a28.294 28.294 0 0 0 .013 18.73l-17.626 10.178a5.271 5.271 0 0 0 1.273 9.661 5.276 5.276 0 0 0 4.002-.527l17.638-10.187c4.119 4.78 9.796 8.175 16.238 9.389v95.854c-6.44 1.215-12.115 4.608-16.234 9.385l-17.615-10.173a5.274 5.274 0 0 0-5.275 9.134l17.599 10.164a28.267 28.267 0 0 0-1.602 9.389c0 3.287.567 6.443 1.6 9.381l-82.979 47.909Zm109.78-39.44c-9.842 0-17.85-8.008-17.85-17.851 0-9.842 8.008-17.85 17.85-17.85 9.843 0 17.851 8.008 17.851 17.85 0 9.843-8.008 17.851-17.851 17.851Z"/><path d="M224.171 234.486h-15.694a5.274 5.274 0 1 0 0 10.547h15.694a5.273 5.273 0 0 0 0-10.547Zm0 20.655h-88.339a5.273 5.273 0 0 0 0 10.547h88.339a5.292 5.292 0 0 0 3.729-1.545 5.27 5.27 0 0 0 1.143-5.747 5.286 5.286 0 0 0-2.854-2.854 5.276 5.276 0 0 0-2.018-.401Zm-88.339-10.108h.073a5.273 5.273 0 1 0 0-10.547h-.073a5.273 5.273 0 0 0 0 10.547Zm18.339 0a5.273 5.273 0 0 0 0-10.547h-.073a5.274 5.274 0 1 0 0 10.547h.073Zm18.266 0a5.273 5.273 0 0 0 0-10.547h-.073a5.274 5.274 0 1 0 0 10.547h.073Z"/></g><defs><clipPath id="a"><path fill="#fff" d="M0 0h360v360H0z"/></clipPath></defs></svg>