<svg width="372" height="337" fill="none" xmlns="http://www.w3.org/2000/svg"><g clip-path="url(#a)"><g filter="url(#b)"><ellipse cx="76" cy="191.216" rx="11" ry="1" fill="#000" fill-opacity=".78"/></g><g filter="url(#c)"><ellipse cx="98" cy="299.216" rx="11" ry="1" fill="#000" fill-opacity=".78"/></g><g filter="url(#d)"><ellipse cx="266" cy="299.216" rx="11" ry="1" fill="#000" fill-opacity=".78"/></g><g filter="url(#e)"><ellipse cx="187" cy="107.216" rx="15" ry="1" fill="#000" fill-opacity=".78"/></g><path opacity=".09" d="M183.649 104.944a4.001 4.001 0 0 1 4.702 0l74.011 53.772a4 4 0 0 1 1.453 4.472l-28.27 87.005a3.998 3.998 0 0 1-3.804 2.764h-91.482a3.998 3.998 0 0 1-3.804-2.764l-28.27-87.005a4 4 0 0 1 1.453-4.472l74.011-53.772Z" stroke="#A562FF" stroke-width="2"/><path opacity=".05" d="M183.649 14.944a4 4 0 0 1 4.702 0l159.606 115.961a3.999 3.999 0 0 1 1.453 4.472l-60.964 187.628a4 4 0 0 1-3.804 2.764H87.358a4 4 0 0 1-3.804-2.764L22.59 135.377a4 4 0 0 1 1.453-4.472l-.588-.809.588.809 159.606-115.96Z" stroke="#A562FF" stroke-width="2"/><g clip-path="url(#f)" stroke="#E546FF" stroke-width="1.567" stroke-miterlimit="10" stroke-linecap="round" stroke-linejoin="round"><path d="m275.764 271.276 2.773-7.789c.706-1.721 2.133-1.402 2.133-1.402 1.104.212 1.699 1.16 1.573 2.223l-2.544 10.71c-.657 2.752-2.488 5.436-4.62 7.17l-4.394 3.294v1.942c0 .465-.36.841-.803.841h-7.37v-4.882s-.48-5.561 4.563-8.772l6.029-4.054c.297-.2.642-.307.995-.306a1.8 1.8 0 0 1 1.305.566c.706.741.72 1.937.032 2.695l-4.061 3.355"/><path d="m253.625 276.866-4.06-3.355a1.996 1.996 0 0 1 .032-2.694c.171-.18.374-.323.598-.42a1.773 1.773 0 0 1 1.701.16l6.029 4.054c5.043 3.211 4.563 8.771 4.563 8.771v4.883h-7.369c-.444 0-.803-.377-.803-.842v-1.942l-4.395-3.294c-2.132-1.734-3.963-4.417-4.62-7.169l-2.543-10.711c-.126-1.062.468-2.01 1.573-2.222 0 0 1.427-.32 2.133 1.401l2.772 7.789m9.612-1.378h-1.017c-.444 0-.803-.377-.803-.842v-4.511c0-1.826 1.412-3.306 3.155-3.306h4.635c1.743 0 3.155 1.48 3.155 3.306v4.511c0 .465-.359.842-.803.842h-1.003M262.5 261.238c2.057 0 3.724-1.747 3.724-3.902 0-2.155-1.667-3.901-3.724-3.901-2.057 0-3.725 1.746-3.725 3.901s1.668 3.902 3.725 3.902Z"/><path d="M266.333 255.92h4.817c1.742 0 3.155 1.48 3.155 3.306v4.456c0 .495-.383.897-.856.897h-5.482M268.834 255.92c2.057 0 3.724-1.747 3.724-3.901 0-2.155-1.667-3.902-3.724-3.902-2.057 0-3.725 1.747-3.725 3.902 0 2.154 1.668 3.901 3.725 3.901ZM257.033 264.579h-5.482c-.472 0-.856-.402-.856-.897v-4.456c0-1.826 1.413-3.306 3.156-3.306h4.926M256.166 255.92c2.057 0 3.724-1.747 3.724-3.901 0-2.155-1.667-3.902-3.724-3.902-2.057 0-3.725 1.747-3.725 3.902 0 2.154 1.668 3.901 3.725 3.901Z"/></g><g clip-path="url(#g)" fill="#8E72FF"><path d="m108.148 257.124 5.179-7.786a.715.715 0 0 1 .871-.263l1.63.682 6.88-4.87a.72.72 0 0 1 .923.072h.001l4.973 4.814c.09.087.156.197.191.317a.721.721 0 0 1 .006.369l-.358 1.44a.667.667 0 0 1-.347.454.746.746 0 0 1-.515.044.76.76 0 0 1-.429-.289.658.658 0 0 1-.096-.555l.258-1.039-3.784-3.663-1.877 7.832 4.457.673.241-.97a.671.671 0 0 1 .346-.453.75.75 0 0 1 .516-.05.746.746 0 0 1 .431.286.668.668 0 0 1 .094.562l-.398 1.599-.101-.025a.606.606 0 0 1-.099.214l-18.993.605Zm0 0a.72.72 0 0 0-.113.488l.39 3.013a2.332 2.332 0 0 0-2.156.637v.001a2.295 2.295 0 0 0-.662 1.588 2.319 2.319 0 0 0-1.583.69l.075.073-.075-.073c-.807.819-.869 2.165-.153 3.056l-11.176 11.345.074.073-.074-.073a.67.67 0 0 0-.205.532.748.748 0 0 0 .225.466c.124.122.29.207.47.219a.672.672 0 0 0 .528-.213l11.173-11.342 1.104 1.068-16.067 16.309a.784.784 0 0 1-1.094.015c-.16-.187-.233-.366-.235-.537-.002-.17.066-.35.22-.541l2.624-2.663c.16-.161.22-.35.206-.532a.746.746 0 0 0-.226-.465.744.744 0 0 0-.47-.219.667.667 0 0 0-.528.213l.074.073-.074-.073-2.627 2.666c-.836.848-.819 2.272.038 3.101.85.824 2.277.811 3.11-.035l16.081-16.323c.907.751 2.306.687 3.147-.154.464-.463.64-.887.696-1.201.029-.157.027-.285.018-.375l-.002-.012c1.13-.043 2.14-1.011 2.193-2.163l1.499.262c.113.02.225.013.335-.021l9.705-3.007a.712.712 0 0 0 .474-.884l-.515-1.751 2.653-3.775h.001l-19.078.544Zm1.254 10.759a.853.853 0 0 1-.063.335.85.85 0 0 1-.187.285h-.001c-.362.368-.874.324-1.27.011l-2.822-2.733a.876.876 0 0 1-.016-1.237.902.902 0 0 1 1.266-.014l2.733 2.645h-.001l.004.004c.207.181.354.44.357.704Zm.728-1.643v-.001a215.666 215.666 0 0 1-1.885-1.821l-.942-.915a.878.878 0 0 1-.016-1.237.902.902 0 0 1 1.266-.014l2.826 2.736.073-.075-.073.075c.332.321.342.907.017 1.237a.904.904 0 0 1-1.266.015Zm-.126-4.573-.003-.003-.514-3.97 4.703-7.073.761.319-3.721 7.855v.001a.719.719 0 0 0 .28.919l.001.001 4.085 2.51a.71.71 0 0 0 .499.095h.001l7.188-1.279.233.792-8.867 2.747-2.048-.359-.02-.021-.094-.097-.311-.309a271.073 271.073 0 0 0-1.799-1.763l-.292-.285-.082-.08Zm10.868-5.656 4.526.683-2.024 2.88-7.261 1.292-2.689-1.652 7.448-3.203Zm-4.389-4.966 5.507-3.898-1.825 7.612-6.833 2.938 3.151-6.652Z" stroke="#8E72FF" stroke-width=".208"/><circle cx="95.5" cy="261.524" r="2.083"/><circle cx="100.709" cy="254.232" r="1.042"/><circle cx="88.209" cy="254.232" r="1.042"/><circle cx="94.459" cy="250.065" r="1.042"/><circle cx="92.375" cy="268.815" r="1.042"/><circle cx="117.375" cy="270.899" r="1.042"/><circle cx="115.292" cy="275.065" r="1.042"/><circle cx="106.959" cy="277.149" r="1.042"/></g><g clip-path="url(#h)" fill="#2F80ED"><path d="M72 180.357c14.176 0 25.667-11.491 25.667-25.666 0-14.176-11.49-25.667-25.666-25.667s-25.667 11.491-25.667 25.667c.016 14.168 11.499 25.65 25.667 25.666Zm0-49.622c13.231 0 23.956 10.725 23.956 23.956 0 13.23-10.725 23.955-23.955 23.955-13.23 0-23.956-10.725-23.956-23.955.015-13.225 10.731-23.941 23.956-23.956Z"/><path d="M60.337 169.445a18.743 18.743 0 0 0 23.331 0c11.54-9.689 8.262-26.101-3.593-31.754a18.852 18.852 0 0 0-16.148 0c-11.976 5.712-15.031 22.147-3.59 31.754Zm3.966-21.599a.854.854 0 0 0 .855-.856v-7.972c.831-.359 1.69-.653 2.567-.876v11.214a6.824 6.824 0 0 0-1.891 8.294 6.837 6.837 0 0 0 1.89 2.375v11.213c-.579-.149-1.15-.33-1.71-.54v-3.175a.854.854 0 0 0-1.46-.604.854.854 0 0 0-.251.604v2.427a17.175 17.175 0 0 1-2.567-1.603v-27.313a17.262 17.262 0 0 1 1.711-1.14v7.096a.855.855 0 0 0 .856.856Zm15.4-3.423a.857.857 0 0 0 .855-.855v-3.674c.593.346 1.164.726 1.711 1.14v27.313a17.175 17.175 0 0 1-2.566 1.603v-6.704a.854.854 0 1 0-1.711 0v7.452c-.56.21-1.132.391-1.712.54v-11.213a6.837 6.837 0 0 0 2.567-5.335 6.828 6.828 0 0 0-2.566-5.334v-11.214a16.95 16.95 0 0 1 2.566.876v4.55a.857.857 0 0 0 .856.855Zm-7.7 22.245a.854.854 0 0 0-.856.855v4.235a17.516 17.516 0 0 1-1.711-.171v-10.556a6.788 6.788 0 0 0 5.133 0v10.556c-.567.086-1.138.143-1.71.171v-4.235a.854.854 0 0 0-.856-.855Zm5.133-11.978a5.133 5.133 0 1 1-10.267 0 5.133 5.133 0 0 1 10.267 0Zm10.267 7.409v-4.842a.854.854 0 1 0-1.711 0v7.656a17.372 17.372 0 0 1-1.711 1.977v-24.399a17.003 17.003 0 0 1 3.422 19.608Zm-12.834-24.306v10.557a6.788 6.788 0 0 0-5.133 0v-10.557c1.7-.285 3.434-.285 5.133 0Zm-14.544 4.698v24.399a17.362 17.362 0 0 1-1.711-1.977v-5.945a.854.854 0 1 0-1.711 0v3.131a17.008 17.008 0 0 1 3.422-19.608ZM72 134.157a.856.856 0 1 0-.001-1.711.856.856 0 0 0 0 1.711ZM62.135 136.389a.855.855 0 1 0-1.652-.444.855.855 0 0 0 1.652.444ZM53.7 144.822a.855.855 0 1 0-.442-1.652.855.855 0 0 0 .441 1.652Z"/><path d="M50.611 155.546a.855.855 0 1 0 0-1.71.855.855 0 0 0 0 1.71ZM54.31 165.612a.856.856 0 1 0-1.654-.442.856.856 0 0 0 1.654.442ZM61.535 174.041a.855.855 0 1 0-.441-1.652.855.855 0 0 0 .441 1.652ZM72 176.935a.855.855 0 1 0 0-1.71.855.855 0 0 0 0 1.71ZM83.53 173.441a.855.855 0 1 0-1.651-.444.855.855 0 0 0 1.652.444ZM90.757 166.206a.855.855 0 1 0-.441-1.652.855.855 0 0 0 .441 1.652ZM93.39 155.546a.855.855 0 1 0 .001-1.71.855.855 0 0 0 0 1.71ZM91.363 144.216a.856.856 0 1 0-1.654-.443.856.856 0 0 0 1.654.443ZM82.922 136.987a.856.856 0 1 0-.442-1.653.856.856 0 0 0 .442 1.653ZM68.58 154.69a.855.855 0 1 0 1.711 0 1.709 1.709 0 0 1 1.712-1.711.857.857 0 0 0 .855-.855c0-1.79-4.278-.697-4.278 2.566Zm-3.422 9.412a.858.858 0 0 0 .856-.856v-.856a.858.858 0 0 0-.856-.855.857.857 0 0 0-.856.855v.856a.855.855 0 0 0 .856.856Zm-7.7-8.556a.854.854 0 0 0 .856-.856v-.855a.855.855 0 1 0-1.712 0v.855a.855.855 0 0 0 .856.856Zm14.544-12.833a.854.854 0 0 0 .856-.856v-.855a.854.854 0 1 0-1.711 0v.855a.854.854 0 0 0 .855.856Zm6.845 5.133a.854.854 0 1 0 1.711 0v-.856a.858.858 0 0 0-.856-.855.857.857 0 0 0-.855.855v.856Zm7.7 5.989a.854.854 0 0 0 .856-.856v-.855a.855.855 0 1 0-1.712 0v.855a.855.855 0 0 0 .856.856Z"/></g><path d="M206.18 91.4a.896.896 0 0 0-.035-.035l-1.508-1.475-2.75-2.768-2.039-2.04 1.808-1.81a.86.86 0 0 0 0-1.208l-1.954-1.954a.855.855 0 0 0-1.208 0l-.702.703-2.888-3.232 11.447-10.252a.857.857 0 0 0 .282-.6l.412-8.22a.864.864 0 0 0-.249-.652.856.856 0 0 0-.651-.249l-8.216.403a.86.86 0 0 0-.6.283l-9.827 11.024-9.844-10.998a.853.853 0 0 0-.6-.283l-8.216-.403a.855.855 0 0 0-.899.9l.411 8.22a.85.85 0 0 0 .283.6L180.1 77.642l-2.879 3.18-.702-.703a.858.858 0 0 0-1.208 0l-1.954 1.955a.86.86 0 0 0 0 1.208l1.808 1.809-2.048 2.031-4.283 4.287a3.147 3.147 0 0 0 2.219 5.366 3.117 3.117 0 0 0 2.219-.918l6.288-6.291 1.808 1.808a.854.854 0 0 0 1.208 0l1.953-1.954a.856.856 0 0 0 0-1.209l-.668-.746 3.641-3.248 3.641 3.248-.702.703a.856.856 0 0 0 0 1.209l1.953 1.954a.858.858 0 0 0 1.208 0l1.808-1.808 2.039 2.04 2.759 2.76 1.49 1.492a3.144 3.144 0 0 0 4.447.035 3.147 3.147 0 0 0 .035-4.449Zm-9.622-9.37-1.508 1.508-3.221-3.223 1.773-1.585 2.956 3.3Zm-26.559-15.747-.343-6.918 6.914.343 9.733 10.887-1.988 2.22-3.598-3.6a.858.858 0 0 0-1.208 1.208l3.709 3.678-1.97 2.22-11.249-10.038Zm2.047 28.288a1.422 1.422 0 0 1-1.011.42 1.43 1.43 0 0 1-.959-2.383l.857-.858 2.004 1.98-.891.84Zm2.091-2.092-1.971-1.98 1.551-1.552 2.022 2.023-1.602 1.509Zm2.767-2.769-2.022-2.023 1.482-1.388 2.022 2.023-1.482 1.388Zm5.055-.231-1.799-1.8-3.23-3.232-1.765-1.774.737-.738 6.854 6.858-.797.686Zm.643-3.266-1.508-1.509 14.307-14.315a.848.848 0 0 0 .299-.618.851.851 0 0 0-.543-.831.858.858 0 0 0-.964.24l-14.307 14.316-1.508-1.51 3.512-3.925 16.501-18.344 6.914-.343-.342 6.917-11.841 10.587-10.52 9.335Zm6.134-3.197 1.842-1.552 3.281 3.283-1.508 1.509-3.615-3.24Zm5.997 4.654-1.739 1.852-.737-.738 6.854-6.857.737.737-1.808 1.809-3.307 3.197Zm1.816.609 2.091-1.98 1.431 1.431-2.022 2.023-1.5-1.474Zm4.198 4.2-1.55-1.552 2.022-2.023 1.55 1.552-2.022 2.023Zm4.181 2.134-.068-.042c-.566.54-1.456.54-2.022 0l-.857-.858 2.065-1.963.857.858c.553.55.565 1.442.025 2.005Z" fill="#FF1A35"/><g filter="url(#i)"><ellipse cx="290" cy="183.69" rx="13" ry="1" fill="#000" fill-opacity=".78"/></g><path d="M280.241 154.396a1.043 1.043 0 0 0-2.074-.197l2.074.197Zm23.617-12.563-.737.736.737-.736Zm-9.206-4.916.217-1.019a1.04 1.04 0 0 0-1.236.804l1.019.215Zm-1.047 4.969-1.02-.215a1.042 1.042 0 0 0 .802 1.233l.218-1.018Zm6.66 3.54-.737.736.737-.736Zm3.54 6.66-1.019.218c.12.561.672.92 1.234.801l-.215-1.019Zm4.969-1.047.215 1.019a1.046 1.046 0 0 0 .804-1.237l-1.019.218Zm5.564 10.855-.737.736.737-.736Zm-2.396 0 .737.736-.737-.736Zm-.599.599-.736.736a1.041 1.041 0 0 0 1.473 0l-.737-.736Zm-3.263-3.264-1.028-.169a1.04 1.04 0 0 0 .291.905l.737-.736Zm-.129-8.017 1.019-.217a1.04 1.04 0 0 0-1.234-.802l.215 1.019Zm-3.318.699-.215-1.019a1.044 1.044 0 0 0-.804 1.237l1.019-.218Zm-.043 7.567-1.021-.208 1.021.208Zm.466 1.517.736-.736-.736.736Zm5.09 5.091-.737.736.737-.736Zm2.395 0-.737-.737.737.737Zm1.797-1.797.736.737-.736-.737Zm-19.859-26.55 1.019.215a1.043 1.043 0 0 0-.803-1.234l-.216 1.019Zm-8.017-.128-.737.737c.238.237.575.345.906.291l-.169-1.028Zm-3.264-3.264-.737-.736a1.043 1.043 0 0 0 0 1.473l.737-.737Zm.599-.599-.737-.736.737.736Zm0-2.395-.737.737.737-.737Zm-2.396 0 .737.737-.737-.737Zm-1.796 1.797-.737-.737.737.737Zm0 2.395.737-.737-.737.737Zm5.09 5.09.737-.737-.737.737Zm1.518.466.208 1.02-.208-1.02Zm7.566-.043-.217 1.018a1.04 1.04 0 0 0 1.237-.804l-1.02-.214Zm-11.883-4.162a1.042 1.042 0 0 0-2.074-.196l2.074.196Zm-3.012 9.718a1.042 1.042 0 0 0 2.074.196l-2.074-.196Zm30.106 19.255a1.041 1.041 0 1 0-.196-2.074l.196 2.074Zm-.085-29.084.973-.374a1.044 1.044 0 0 0-.599-.598l-.374.972Zm-30.187 28.714a1.041 1.041 0 1 0 1.473 1.473l-1.473-1.473Zm.437 7.025-1.035.115a1.042 1.042 0 0 0 1.772.621l-.737-.736Zm4.791-10.779 1.035-.115a1.041 1.041 0 0 0-.92-.921l-.115 1.036Zm-10.779 4.79-.737-.736a1.042 1.042 0 0 0 .622 1.771l.115-1.035Zm40.396-34.408.989.33a1.043 1.043 0 0 0-1.318-1.318l.329.988Zm-8.982 2.994-.33-.988a1.042 1.042 0 0 0-.044 1.961l.374-.973Zm5.988 5.989-.972.374a1.042 1.042 0 0 0 1.96-.045l-.988-.329Zm-32.402 13.089-.647 6.849 2.074.196.647-6.848-2.074-.197Zm26.427-13.103c-2.643-2.643-6-4.404-9.725-5.198l-.434 2.037c3.357.716 6.345 2.293 8.686 4.634l1.473-1.473Zm-10.961-4.394-1.048 4.969 2.039.429 1.047-4.969-2.038-.429Zm-.246 6.202c2.401.514 4.503 1.62 6.141 3.258l1.473-1.473c-1.944-1.944-4.416-3.231-7.178-3.822l-.436 2.037Zm6.141 3.258c1.638 1.638 2.745 3.74 3.258 6.142l2.038-.436c-.591-2.763-1.878-5.234-3.823-7.179l-1.473 1.473Zm4.492 6.943 4.969-1.047-.43-2.039-4.969 1.048.43 2.038Zm5.773-2.284c-.794-3.725-2.555-7.081-5.199-9.725l-1.473 1.473c2.342 2.342 3.918 5.33 4.634 8.687l2.038-.435Zm5.281 10.336a2.735 2.735 0 0 0-3.868 0l1.473 1.473a.653.653 0 0 1 .922 0l1.473-1.473Zm-3.868 0-.599.599 1.473 1.473.599-.599-1.473-1.473Zm.874.599-3.264-3.264-1.473 1.473 3.264 3.264 1.473-1.473Zm-2.973-2.358c.48-2.915.426-5.755-.137-8.403l-2.038.434c.506 2.376.56 4.954.12 7.631l2.055.338Zm-1.371-9.205-3.318.699.43 2.039 3.318-.7-.43-2.038Zm-4.122 1.936c.468 2.189.47 4.61-.045 7.141l2.042.416c.567-2.786.573-5.497.041-7.992l-2.038.435Zm-.045 7.141a2.72 2.72 0 0 0 .75 2.462l1.473-1.473a.638.638 0 0 1-.181-.574l-2.042-.415Zm.75 2.462 5.09 5.09 1.473-1.473-5.09-5.09-1.473 1.473Zm5.09 5.09a2.737 2.737 0 0 0 3.869 0l-1.474-1.473a.651.651 0 0 1-.922 0l-1.473 1.473Zm3.869 0 1.796-1.796-1.473-1.473-1.797 1.796 1.474 1.473Zm1.796-1.796a2.737 2.737 0 0 0 0-3.869l-1.473 1.473a.652.652 0 0 1 0 .923l1.473 1.473Zm-20.379-28.306c-2.647-.563-5.488-.616-8.402-.137l.338 2.056c2.676-.44 5.254-.386 7.631.119l.433-2.038Zm-7.497.154-3.263-3.263-1.474 1.473 3.264 3.264 1.473-1.474Zm-3.263-1.79.598-.599-1.473-1.473-.599.599 1.474 1.473Zm.598-.599a2.735 2.735 0 0 0 0-3.869l-1.473 1.474a.651.651 0 0 1 0 .922l1.473 1.473Zm0-3.868a2.733 2.733 0 0 0-3.868 0l1.473 1.473a.651.651 0 0 1 .922 0l1.473-1.473Zm-3.868-.001-1.797 1.797 1.474 1.473 1.796-1.796-1.473-1.474Zm-1.797 1.797a2.735 2.735 0 0 0 0 3.868l1.474-1.473a.651.651 0 0 1 0-.922l-1.474-1.473Zm0 3.868 5.091 5.091 1.473-1.474-5.09-5.09-1.474 1.473Zm5.091 5.091a2.719 2.719 0 0 0 2.462.749l-.416-2.041a.634.634 0 0 1-.573-.182l-1.473 1.474Zm2.462.749c2.53-.515 4.951-.512 7.141-.045l.435-2.037c-2.495-.533-5.207-.526-7.992.041l.416 2.041Zm8.378-.849.699-3.318-2.039-.43-.699 3.319 2.039.429Zm-14.977-4.572-.938 9.914 2.074.196.938-9.914-2.074-.196Zm28.972 27.095-24.347 2.302.196 2.074 24.347-2.302-.196-2.074Zm-.625-27.746-29.451 29.45 1.473 1.473 29.451-29.45-1.473-1.473Zm-27.978 36.36-.599-5.39-2.071.23.599 5.39 2.071-.23Zm-.898-4.538 5.39-5.39-1.474-1.473-5.389 5.389 1.473 1.474Zm3.618-6.011.599 5.389 2.07-.23-.599-5.389-2.07.23Zm.897 4.537-5.389 5.39 1.473 1.473 5.389-5.389-1.473-1.474Zm-5.136-.298-5.39-.599-.23 2.07 5.39.599.23-2.07Zm-4.768 1.173 5.389-5.39-1.473-1.473-5.39 5.39 1.474 1.473Zm4.538-5.091 5.389.599.23-2.071-5.389-.599-.23 2.071Zm34.792-31.042-8.983 2.994.659 1.977 8.983-2.995-.659-1.976Zm-9.027 4.955 4.324 1.663.748-1.944-4.324-1.664-.748 1.945Zm3.726 1.065 1.664 4.325 1.944-.748-1.663-4.325-1.945.748Zm3.624 4.28 2.995-8.982-1.977-.659-2.994 8.982 1.976.659Z" fill="#00D689"/><path opacity=".05" d="M183.355 2.54a4.5 4.5 0 0 1 5.29 0l171.019 124.252a4.499 4.499 0 0 1 1.634 5.031l-65.323 201.045a4.5 4.5 0 0 1-4.28 3.109H80.305a4.5 4.5 0 0 1-4.28-3.109L10.702 131.823a4.5 4.5 0 0 1 1.634-5.031L183.355 2.54Z" stroke="#A562FF"/><path opacity=".03" d="M184.076 132.398a3.272 3.272 0 0 1 3.848 0l48.46 35.208a3.275 3.275 0 0 1 1.189 3.66l-18.51 56.968a3.273 3.273 0 0 1-3.113 2.262h-59.9a3.273 3.273 0 0 1-3.113-2.262l-18.51-56.968a3.275 3.275 0 0 1 1.189-3.66l48.46-35.208Z" fill="#A562FF"/></g><defs><filter id="b" x="55.9" y="181.116" width="40.2" height="20.2" filterUnits="userSpaceOnUse" color-interpolation-filters="sRGB"><feFlood flood-opacity="0" result="BackgroundImageFix"/><feBlend in="SourceGraphic" in2="BackgroundImageFix" result="shape"/><feGaussianBlur stdDeviation="4.55" result="effect1_foregroundBlur_1015_84"/></filter><filter id="c" x="77.9" y="289.116" width="40.2" height="20.2" filterUnits="userSpaceOnUse" color-interpolation-filters="sRGB"><feFlood flood-opacity="0" result="BackgroundImageFix"/><feBlend in="SourceGraphic" in2="BackgroundImageFix" result="shape"/><feGaussianBlur stdDeviation="4.55" result="effect1_foregroundBlur_1015_84"/></filter><filter id="d" x="245.9" y="289.116" width="40.2" height="20.2" filterUnits="userSpaceOnUse" color-interpolation-filters="sRGB"><feFlood flood-opacity="0" result="BackgroundImageFix"/><feBlend in="SourceGraphic" in2="BackgroundImageFix" result="shape"/><feGaussianBlur stdDeviation="4.55" result="effect1_foregroundBlur_1015_84"/></filter><filter id="e" x="162.9" y="97.116" width="48.2" height="20.2" filterUnits="userSpaceOnUse" color-interpolation-filters="sRGB"><feFlood flood-opacity="0" result="BackgroundImageFix"/><feBlend in="SourceGraphic" in2="BackgroundImageFix" result="shape"/><feGaussianBlur stdDeviation="4.55" result="effect1_foregroundBlur_1015_84"/></filter><filter id="i" x="267.9" y="173.59" width="44.2" height="20.2" filterUnits="userSpaceOnUse" color-interpolation-filters="sRGB"><feFlood flood-opacity="0" result="BackgroundImageFix"/><feBlend in="SourceGraphic" in2="BackgroundImageFix" result="shape"/><feGaussianBlur stdDeviation="4.55" result="effect1_foregroundBlur_1015_84"/></filter><clipPath id="a"><path fill="#fff" d="M0 0h372v337H0z"/></clipPath><clipPath id="f"><path fill="#fff" transform="translate(241.938 246.649)" d="M0 0h41.125v43.083H0z"/></clipPath><clipPath id="g"><path fill="#fff" transform="translate(87.167 244.857)" d="M0 0h41.667v41.667H0z"/></clipPath><clipPath id="h"><path fill="#fff" transform="translate(46.333 129.024)" d="M0 0h51.333v51.333H0z"/></clipPath></defs></svg>