<svg width="26" height="26" viewBox="0 0 26 26" fill="none" xmlns="http://www.w3.org/2000/svg">
<path fill-rule="evenodd" clip-rule="evenodd" d="M13 0C5.8203 0 0 5.8203 0 13C0 20.1797 5.8203 26 13 26C20.1797 26 26 20.1797 26 13C26 5.8203 20.1797 0 13 0ZM10.1415 6.10854C10.8811 6.07488 11.1174 6.06665 13.0004 6.06665H12.9982C14.8818 6.06665 15.1172 6.07488 15.8568 6.10854C16.5949 6.14234 17.099 6.2592 17.541 6.43065C17.9975 6.6076 18.3832 6.84449 18.7688 7.23016C19.1545 7.61554 19.3914 8.00237 19.5691 8.45839C19.7395 8.89924 19.8565 9.40306 19.8912 10.1412C19.9244 10.8807 19.9331 11.1171 19.9331 13.0001C19.9331 14.8831 19.9244 15.1188 19.8912 15.8584C19.8565 16.5962 19.7395 17.1002 19.5691 17.5411C19.3914 17.997 19.1545 18.3838 18.7688 18.7692C18.3836 19.1549 17.9974 19.3924 17.5415 19.5695C17.1003 19.7409 16.5959 19.8578 15.8578 19.8916C15.1183 19.9252 14.8827 19.9335 12.9995 19.9335C11.1167 19.9335 10.8805 19.9252 10.1409 19.8916C9.40296 19.8578 8.89899 19.7409 8.45785 19.5695C8.00213 19.3924 7.6153 19.1549 7.23006 18.7692C6.84454 18.3838 6.60765 17.997 6.43041 17.541C6.2591 17.1002 6.14224 16.5963 6.1083 15.8582C6.07478 15.1186 6.06641 14.8831 6.06641 13.0001C6.06641 11.1171 6.07507 10.8806 6.10815 10.141C6.14137 9.40321 6.25837 8.89924 6.43027 8.45824C6.60793 8.00237 6.84483 7.61554 7.2305 7.23016C7.61588 6.84464 8.0027 6.60775 8.45872 6.43065C8.89957 6.2592 9.4034 6.14234 10.1415 6.10854Z" fill="#615C7E"/>
<path fill-rule="evenodd" clip-rule="evenodd" d="M12.3784 7.31619C12.4991 7.316 12.6291 7.31606 12.7693 7.31612L13.0004 7.31619C14.8516 7.31619 15.071 7.32283 15.802 7.35605C16.478 7.38696 16.8449 7.49992 17.0893 7.59482C17.4129 7.72049 17.6436 7.87071 17.8861 8.11338C18.1288 8.35605 18.279 8.58717 18.4049 8.91072C18.4998 9.15484 18.6129 9.52173 18.6437 10.1977C18.6769 10.9286 18.6842 11.1482 18.6842 12.9985C18.6842 14.8489 18.6769 15.0685 18.6437 15.7994C18.6128 16.4754 18.4998 16.8423 18.4049 17.0864C18.2793 17.4099 18.1288 17.6403 17.8861 17.8828C17.6434 18.1255 17.413 18.2757 17.0893 18.4014C16.8452 18.4967 16.478 18.6094 15.802 18.6403C15.0711 18.6735 14.8516 18.6808 13.0004 18.6808C11.149 18.6808 10.9296 18.6735 10.1987 18.6403C9.52267 18.6091 9.15578 18.4962 8.91123 18.4013C8.58768 18.2756 8.35656 18.1254 8.11389 17.8827C7.87122 17.64 7.721 17.4095 7.59504 17.0858C7.50014 16.8417 7.38704 16.4748 7.35627 15.7988C7.32305 15.0679 7.31641 14.8483 7.31641 12.9968C7.31641 11.1453 7.32305 10.9269 7.35627 10.196C7.38718 9.52 7.50014 9.15311 7.59504 8.9087C7.72071 8.58514 7.87122 8.35403 8.11389 8.11136C8.35656 7.86869 8.58768 7.71847 8.91123 7.59251C9.15564 7.49718 9.52267 7.38451 10.1987 7.35345C10.8383 7.32456 11.0862 7.3159 12.3784 7.31445V7.31619ZM16.6992 8.46709C16.2399 8.46709 15.8672 8.83932 15.8672 9.2988C15.8672 9.75814 16.2399 10.1308 16.6992 10.1308C17.1585 10.1308 17.5312 9.75814 17.5312 9.2988C17.5312 8.83947 17.1585 8.4668 16.6992 8.4668V8.46709ZM9.44141 13C9.44141 11.0338 11.0356 9.43953 13.0019 9.43945C14.9682 9.43945 16.562 11.0337 16.562 13C16.562 14.9664 14.9683 16.5599 13.002 16.5599C11.0357 16.5599 9.44141 14.9664 9.44141 13Z" fill="#615C7E"/>
<path d="M12.9986 10.6885C14.275 10.6885 15.3098 11.7231 15.3098 12.9996C15.3098 14.2759 14.275 15.3107 12.9986 15.3107C11.7222 15.3107 10.6875 14.2759 10.6875 12.9996C10.6875 11.7231 11.7222 10.6885 12.9986 10.6885Z" fill="#615C7E"/>
</svg>
