<svg width="148" height="31" fill="none" xmlns="http://www.w3.org/2000/svg"><path d="M44.462 26.286v-8.42L36.086 4.618h4.391l5.916 9.41 5.511-9.41h4.112L48.26 17.866v8.42h-3.799ZM63.084 26.626c-1.1 0-2.14-.17-3.112-.51a7.145 7.145 0 0 1-2.57-1.548c-.736-.691-1.324-1.563-1.758-2.615-.436-1.052-.654-2.29-.654-3.715v-.618c0-1.342.218-2.517.654-3.528.437-1.01 1.022-1.852 1.759-2.523a7.413 7.413 0 0 1 2.569-1.518 9.392 9.392 0 0 1 3.112-.51c1.1 0 2.137.17 3.113.51.976.34 1.832.851 2.569 1.531.737.68 1.324 1.522 1.758 2.524.436 1.002.654 2.172.654 3.514v.618c0 1.404-.218 2.631-.654 3.683-.436 1.052-1.024 1.93-1.758 2.631a7.026 7.026 0 0 1-2.569 1.563 9.391 9.391 0 0 1-3.113.511Zm0-2.97c.602 0 1.182-.108 1.745-.325.56-.216 1.049-.54 1.465-.974.415-.433.748-.99.996-1.672.248-.68.374-1.497.374-2.447v-.618c0-.867-.124-1.62-.374-2.259-.25-.639-.581-1.17-.997-1.595a3.944 3.944 0 0 0-1.464-.944 5.027 5.027 0 0 0-1.745-.31c-.603 0-1.182.102-1.744.31-.56.207-1.05.522-1.465.944-.415.422-.748.954-.996 1.595-.248.639-.374 1.392-.374 2.259v.618c0 .95.124 1.764.374 2.447.25.68.58 1.243.996 1.686.416.445.902.769 1.465.974.56.205 1.14.31 1.744.31ZM80.367 26.626c-1.972 0-3.453-.557-4.438-1.673-.987-1.113-1.478-2.827-1.478-5.138V9.88h3.425v9.595c0 1.383.285 2.425.856 3.126.572.703 1.5 1.052 2.787 1.052.705 0 1.313-.119 1.823-.356a3.621 3.621 0 0 0 1.246-.929c.322-.38.565-.826.733-1.33a4.993 4.993 0 0 0 .248-1.563V9.88h3.424v16.406h-3.177V23.47c-.395.867-1.049 1.609-1.962 2.23-.914.618-2.076.928-3.487.928v-.002ZM93.35 26.286V9.88h3.177v2.816c.394-.847 1.053-1.584 1.976-2.213.923-.63 2.123-.945 3.597-.945 2.055 0 3.586.54 4.594 1.624 1.005 1.084 1.51 2.668 1.51 4.751v10.369h-3.425v-9.595c0-1.383-.296-2.424-.888-3.126-.593-.7-1.564-1.052-2.911-1.052-.746 0-1.386.118-1.915.356-.53.237-.966.547-1.308.928a3.533 3.533 0 0 0-.748 1.33 5.274 5.274 0 0 0-.234 1.564v9.595H93.35v.004ZM114.433 7.93c-.664 0-1.194-.197-1.589-.59-.395-.392-.592-.887-.592-1.485 0-.598.197-1.093.592-1.485.395-.393.923-.589 1.589-.589.665 0 1.193.196 1.588.589.395.392.592.887.592 1.485 0 .598-.197 1.093-.592 1.486-.395.392-.925.588-1.588.588Zm-1.713 18.354V9.878h3.425v16.406h-3.425ZM127.199 26.439c-.914 0-1.708-.098-2.383-.294-.675-.197-1.23-.5-1.667-.913-.436-.413-.753-.945-.95-1.595-.197-.65-.296-1.42-.296-2.307v-8.543h-2.335v-2.91h2.335V6.164h3.425v3.715h4.203v2.91h-4.203v8.077c0 .454.041.85.124 1.19.082.34.227.614.436.82.207.205.477.356.81.45.333.093.758.139 1.277.139.312 0 .622-.005.934-.016.312-.01.622-.037.934-.078v2.91c-.395.04-.794.077-1.198.106-.404.032-.888.046-1.449.046l.003.007ZM140.496 26.626a9.882 9.882 0 0 1-3.161-.495 6.86 6.86 0 0 1-2.584-1.547c-.737-.7-1.323-1.579-1.759-2.63-.436-1.053-.654-2.292-.654-3.716v-.618c0-1.362.206-2.542.622-3.544.415-1.001.98-1.84 1.696-2.523a6.87 6.87 0 0 1 2.491-1.518 9.117 9.117 0 0 1 3.037-.495c2.532 0 4.469.667 5.808 1.997 1.338 1.33 2.008 3.256 2.008 5.773v1.734h-12.205c.021.846.165 1.563.436 2.152a3.998 3.998 0 0 0 1.074 1.44c.446.371.944.645 1.495.819a5.542 5.542 0 0 0 1.696.262c1.141 0 2.025-.185 2.647-.557.622-.372 1.058-.876 1.308-1.517h3.239c-.165.826-.456 1.547-.872 2.168a5.74 5.74 0 0 1-1.556 1.563 6.801 6.801 0 0 1-2.149.944c-.81.205-1.682.31-2.614.31l-.003-.002Zm-4.671-10.122h8.907c-.021-.762-.145-1.403-.375-1.919-.229-.515-.539-.928-.934-1.239a3.834 3.834 0 0 0-1.4-.68 6.512 6.512 0 0 0-1.683-.216c-.583 0-1.141.077-1.682.232a4.084 4.084 0 0 0-1.433.728c-.415.331-.753.749-1.012 1.253-.26.506-.39 1.12-.39 1.841h.002Z" fill="#fff"/><path d="M31.185 8.308a9.864 9.864 0 0 0-.51-3.042C29.66 2.211 26.865.14 23.368 0H8.383a9.967 9.967 0 0 0-3.06.509C2.25 1.517.165 4.297.025 7.772c-.053 1.287-.007 12.5 0 14.895a9.864 9.864 0 0 0 .51 3.042c1.014 3.055 3.81 5.127 7.306 5.266 1.295.053 12.575.007 14.986 0a10.036 10.036 0 0 0 3.06-.507c3.073-1.008 5.158-3.787 5.298-7.262.053-1.287.007-12.5 0-14.896v-.002ZM8.8 15.516 16.424 4.17V12.6a2.924 2.924 0 0 1-2.933 2.916H8.799 8.8Zm6.809-.034v.011h-.012v-.011h.011Zm-.994 11.381v-8.695a2.659 2.659 0 0 1 2.667-2.652h4.958l-7.623 11.347h-.002Z" fill="#8E8BFF"/></svg>