<svg width="50" height="50" fill="none" xmlns="http://www.w3.org/2000/svg"><path fill="#8E8BFF" d="M0 0h50v50H0z"/><path d="M25 15c4.714 0 7.071 0 8.535 1.465C35 17.928 35 20.286 35 25s0 7.071-1.465 8.535C32.072 35 29.714 35 25 35s-7.071 0-8.535-1.465C15 32.072 15 29.714 15 25s0-7.071 1.465-8.535c.973-.974 2.342-1.3 4.535-1.41" stroke="#fff" stroke-width="1.5" stroke-linecap="round"/><ellipse cx="28" cy="23.5" rx="1" ry="1.5" fill="#fff"/><ellipse cx="22" cy="23.5" rx="1" ry="1.5" fill="#fff"/><path d="M29.5 34.5 30 28l-3.143-1.257a5 5 0 0 0-3.714 0L20 28l.5 6.5M20 28l-4.5-2M20 32l-3.5 1.5M30 28l4.5-2M30 32l3.5 1.5" stroke="#fff" stroke-width="1.5" stroke-linecap="round"/></svg>