<svg width="32" height="31" viewBox="0 0 32 31" fill="none" xmlns="http://www.w3.org/2000/svg">
<path d="M15.7878 0C7.35769 0 0.525391 6.8323 0.525391 15.2624C0.525391 23.6862 7.35769 30.5185 15.7814 30.5185H15.7942C24.2243 30.5185 31.0502 23.6862 31.0502 15.2624C31.0502 6.8323 24.2179 0 15.7878 0Z" fill="#51B6FF"/>
<path d="M22.1648 9.01023L7.66932 14.5004C6.8768 14.7304 6.90237 15.5102 7.49037 15.7019L11.1206 16.8332L12.5139 21.0962C12.6801 21.5627 12.8207 21.7353 13.1083 21.7417C13.4087 21.7481 13.5238 21.633 13.8433 21.3582C14.2076 21.0131 14.7701 20.4634 15.6584 19.6006L19.4357 22.3936C20.1324 22.7771 20.6373 22.579 20.8098 21.7481L23.1746 10.0328C23.4303 9.01023 22.8295 8.70984 22.1648 9.01023ZM11.6895 16.5711L19.947 11.3942C20.3561 11.1194 20.4839 11.4261 20.2985 11.6371L13.4471 17.7983L13.0955 20.8789L11.6895 16.5711Z" fill="white"/>
</svg>
