<svg width="70" height="68" viewBox="0 0 70 68" fill="none" xmlns="http://www.w3.org/2000/svg">
<path d="M34.5369 0C16.0961 0 1.15039 14.9135 1.15039 33.3147C1.15039 51.7022 16.0961 66.6157 34.5229 66.6157H34.5509C52.9918 66.6157 67.9234 51.7022 67.9234 33.3147C67.9234 14.9135 52.9778 0 34.5369 0Z" fill="#51B6FF"/>
<path d="M48.4859 19.6672L16.777 31.6511C15.0434 32.1532 15.0993 33.8552 16.3856 34.2737L24.3267 36.7431L27.3746 46.0484C27.7381 47.0667 28.0457 47.4434 28.6748 47.4573C29.3319 47.4713 29.5837 47.2201 30.2826 46.6203C31.0795 45.867 32.31 44.6671 34.2532 42.7837L42.5159 48.8804C44.04 49.7174 45.1444 49.285 45.5218 47.4713L50.6948 21.8992C51.2542 19.6672 49.9399 19.0115 48.4859 19.6672ZM25.5712 36.171L43.6345 24.8709C44.5294 24.2711 44.8089 24.9405 44.4034 25.4011L29.4159 38.8497L28.6468 45.574L25.5712 36.171Z" fill="white"/>
</svg>
