<svg width="31" height="32" fill="none" xmlns="http://www.w3.org/2000/svg"><path d="M15.262.715C6.832.715 0 7.548 0 15.978 0 24.4 6.832 31.234 15.256 31.234h.013c8.43 0 15.256-6.833 15.256-15.256 0-8.43-6.832-15.263-15.263-15.263Z" fill="#fff"/><path d="m21.64 9.725-14.496 5.49c-.793.23-.767 1.01-.179 1.202l3.63 1.131 1.393 4.263c.167.467.307.64.595.645.3.007.415-.108.735-.383.364-.345.927-.895 1.815-1.758l3.777 2.793c.697.384 1.202.186 1.374-.645l2.365-11.715c.256-1.023-.345-1.323-1.01-1.023Zm-10.476 7.561 8.258-5.177c.409-.275.537.032.351.243l-6.851 6.161-.352 3.08-1.406-4.307Z" fill="#8E8BFF"/></svg>