<svg width="31" height="31" viewBox="0 0 31 31" fill="none" xmlns="http://www.w3.org/2000/svg">
<path d="M15.3113 0C6.88113 0 0.0488281 6.8323 0.0488281 15.2624C0.0488281 23.6862 6.88113 30.5185 15.3049 30.5185H15.3176C23.7478 30.5185 30.5737 23.6862 30.5737 15.2624C30.5737 6.8323 23.7414 0 15.3113 0Z" fill="#8976FF"/>
<path d="M21.2892 9.57984C20.6349 9.0427 19.8673 8.7168 19.0494 8.5116C16.9795 7.99257 14.8907 7.86582 12.7704 8.14345C11.7009 8.28226 10.6628 8.55385 9.71273 9.06685C8.59282 9.67037 7.81896 10.5334 7.47921 11.7405C7.24013 12.5975 7.12059 13.4726 7.07655 14.3538C7.00735 15.6634 7.05139 16.961 7.39742 18.2344C7.80009 19.7071 8.68091 20.7934 10.1783 21.3728C10.3419 21.4331 10.4992 21.5237 10.6628 21.584C10.8138 21.6444 10.8578 21.7409 10.8578 21.8979C10.8515 22.9178 10.8515 23.9378 10.8515 25C11.2479 24.6379 11.5184 24.3663 11.7197 24.1551C12.3111 23.5153 12.8711 22.9782 13.4877 22.3686C13.796 22.0608 13.6701 22.0729 14.1546 22.085C14.7208 22.091 15.6205 22.1151 16.1868 22.0729C17.2689 21.9884 18.3448 21.8556 19.3892 21.5539C20.7104 21.1736 21.7737 20.4916 22.3148 19.2061C22.4595 18.8621 22.5916 18.5241 22.686 18.162C23.2019 16.1161 23.1327 14.0641 22.6985 12.0181C22.4972 11.0645 22.0757 10.2196 21.2892 9.57984ZM14.6957 10.8171C14.7082 10.6179 14.8278 10.5455 15.0228 10.5515C16.6649 10.63 17.9044 11.1007 18.8607 12.3319C19.4206 13.0501 19.7226 14.0279 19.7478 14.9331C19.7478 15.0659 19.7541 15.1987 19.7478 15.3315C19.7415 15.4824 19.6723 15.597 19.4961 15.597C19.32 15.6031 19.2319 15.5065 19.2193 15.3375C19.1753 14.6676 19.0368 14.0218 18.7726 13.4002C18.2567 12.1992 17.2752 11.5534 16.0043 11.2395C15.6709 11.1551 15.3311 11.0887 14.9851 11.0585C14.8278 11.0464 14.6894 11.0162 14.6957 10.8171ZM16.3566 12.4949C16.0232 12.3802 15.6834 12.2957 15.3311 12.2414C15.1612 12.2173 15.0417 12.1328 15.0732 11.9396C15.1046 11.7646 15.2241 11.6922 15.4066 11.7043C16.5517 11.8129 17.4514 12.2112 18.0679 13.1708C18.3574 13.6175 18.5272 14.2451 18.5021 14.7219C18.4832 15.0599 18.4329 15.1444 18.2315 15.1383C17.9421 15.1323 17.9799 14.903 17.961 14.734C17.9232 14.4745 17.8666 14.2149 17.7911 13.9675C17.5835 13.2372 17.1053 12.7484 16.3566 12.4949ZM17.3318 14.3538C17.3192 14.4503 17.3192 14.5107 17.3067 14.571C17.2752 14.6978 17.1934 14.7702 17.055 14.7702C16.9166 14.7762 16.8411 14.6978 16.8033 14.5771C16.7782 14.4986 16.7719 14.4141 16.753 14.3296C16.6649 13.883 16.4007 13.5933 15.9351 13.4726C15.8785 13.4605 15.8218 13.4545 15.7652 13.4364C15.6205 13.4002 15.4381 13.3941 15.4318 13.1889C15.4318 13.02 15.5639 12.9234 15.803 12.9053C15.9666 12.8993 16.2245 12.9777 16.3692 13.0441C16.9732 13.3278 17.2563 13.7261 17.3318 14.3538ZM19.7541 19.0371C19.4332 19.7312 18.8858 20.1899 18.1246 20.3951C17.8477 20.4675 17.5772 20.4071 17.3255 20.3045C13.84 18.8802 11.3234 16.5325 9.89518 13.1407C9.79451 12.8993 9.7316 12.6458 9.74418 12.4104C9.74418 11.5353 10.5432 10.7326 11.4177 10.6843C11.6568 10.6722 11.8644 10.7507 12.0406 10.9076C12.6572 11.4568 13.1542 12.1026 13.5128 12.8329C13.7079 13.2252 13.6261 13.5028 13.2738 13.7864C13.2171 13.8347 13.1542 13.877 13.0976 13.9132C12.6257 14.2451 12.5251 14.5831 12.7453 15.0961C13.1165 15.9471 13.7142 16.617 14.5195 17.1119C14.8278 17.2929 15.1361 17.474 15.4884 17.5706C15.8093 17.6611 16.0672 17.5645 16.2748 17.3231C16.2937 17.2929 16.3189 17.2628 16.3378 17.2386C16.7908 16.6411 17.2689 16.5385 17.9232 16.9248C18.4769 17.2567 19.0054 17.637 19.5087 18.0413C19.8422 18.3189 19.9302 18.6448 19.7541 19.0371Z" fill="white"/>
</svg>
